<svg width="144" height="5" viewBox="0 0 144 5" fill="none" xmlns="http://www.w3.org/2000/svg">
<path d="M1 1.62C4.96663 4.79337 8.93325 4.79337 12.9 1.62C16.8666 4.79337 20.8333 4.79337 24.8 1.62C28.7666 4.79337 32.7333 4.79337 36.7 1.62C40.6666 4.79337 44.6333 4.79337 48.6 1.62C52.5666 4.79337 56.5333 4.79337 60.5 1.62C64.4666 4.79337 68.4333 4.79337 72.4 1.62C76.3666 4.79337 80.3333 4.79337 84.3 1.62C88.2666 4.79337 92.2333 4.79337 96.2 1.62C100.167 4.79337 104.133 4.79337 108.1 1.62C112.067 4.79337 116.033 4.79337 120 1.62" stroke="#7FD1AE" stroke-opacity="1"/>
<path d="M119.374 1.62C123.34 4.79337 127.307 4.79337 131.274 1.62C135.24 4.79337 139.207 4.79337 143.174 1.62" stroke="#7FD1AE" stroke-opacity="1"/>
</svg>
