<svg width="42" height="42" viewBox="0 0 181 180" fill="none" xmlns="http://www.w3.org/2000/svg">
<path d="M180.5 90C180.5 139.706 140.206 180 90.5 180C40.7944 180 0.5 139.706 0.5 90C0.5 40.2944 40.7944 0 90.5 0C140.206 0 180.5 40.2944 180.5 90Z" fill="#331B3F"/>
<path d="M9.49187 129.26C9.17775 128.613 8.87115 127.962 8.57219 127.307C17.0862 126.952 25.6644 123.369 34.3206 116.444L34.9453 115.944L35.57 116.444C44.7024 123.75 53.7481 127.336 62.7231 127.336C71.6981 127.336 80.7437 123.75 89.8762 116.444L90.5009 115.944L91.1256 116.444C100.258 123.75 109.304 127.336 118.279 127.336C127.254 127.336 136.299 123.75 145.432 116.444L146.056 115.944L146.681 116.444C155.337 123.369 163.914 126.951 172.428 127.307C172.129 127.962 171.822 128.613 171.508 129.26C162.963 128.704 154.475 125.085 146.056 118.5C136.875 125.682 127.61 129.336 118.279 129.336C108.947 129.336 99.6825 125.682 90.5009 118.5C81.3192 125.682 72.0549 129.336 62.7231 129.336C53.3913 129.336 44.1269 125.682 34.9453 118.5C26.5264 125.086 18.0381 128.705 9.49187 129.26Z" fill="#ACC7B4"/>
<path d="M22.0609 148.45C21.6065 147.918 21.1583 147.382 20.7162 146.839C25.2307 145.03 29.7649 142.311 34.3206 138.666L34.9453 138.166L35.57 138.666C44.7024 145.972 53.7481 149.558 62.7231 149.558C71.6981 149.558 80.7437 145.972 89.8762 138.666L90.5009 138.166L91.1256 138.666C100.258 145.972 109.304 149.558 118.279 149.558C127.254 149.558 136.299 145.972 145.432 138.666L146.056 138.166L146.681 138.666C151.236 142.31 155.77 145.029 160.284 146.839C159.842 147.381 159.394 147.918 158.94 148.449C154.628 146.648 150.333 144.068 146.056 140.722C136.875 147.904 127.61 151.558 118.279 151.558C108.947 151.558 99.6825 147.904 90.5009 140.722C81.3192 147.904 72.0549 151.558 62.7231 151.558C53.3913 151.558 44.1269 147.904 34.9453 140.722C30.6679 144.068 26.3726 146.648 22.0609 148.45Z" fill="#ACC7B4"/>
<path d="M55.9884 173.146C48.2864 169.945 41.1249 165.706 34.6787 160.602L34.9453 160.389L35.57 160.888C44.7024 168.194 53.7481 171.78 62.7231 171.78C71.6981 171.78 80.7437 168.194 89.8762 160.888L90.5009 160.389L91.1256 160.888C100.258 168.194 109.304 171.78 118.279 171.78C127.254 171.78 136.299 168.194 145.432 160.888L146.056 160.389L146.322 160.601C139.875 165.705 132.713 169.945 125.01 173.146C122.77 173.568 120.526 173.78 118.279 173.78C108.947 173.78 99.6825 170.127 90.5009 162.944C81.3192 170.127 72.0549 173.78 62.7231 173.78C60.4742 173.78 58.2293 173.568 55.9884 173.146Z" fill="#ACC7B4"/>
</svg>
