<svg width="24" height="24" viewBox="0 0 24 24" fill="none" xmlns="http://www.w3.org/2000/svg">
<path fill-rule="evenodd" clip-rule="evenodd" d="M7.67109 19.9555C7.39646 19.9267 7.19723 19.6806 7.22609 19.406L7.59072 15.9368H2.5C2.22386 15.9368 2 15.7129 2 15.4368C2 15.1606 2.22386 14.9368 2.5 14.9368H7.69583L8.29376 9.24784H4.5C4.22386 9.24784 4 9.02399 4 8.74784C4 8.4717 4.22386 8.24784 4.5 8.24784H8.39886L9.00308 2.49914C9.03194 2.22451 9.27797 2.02528 9.5526 2.05414C9.82723 2.08301 10.0265 2.32904 9.9976 2.60367L9.40437 8.24784H15.3434L15.7384 4.48913C15.7673 4.2145 16.0133 4.01527 16.288 4.04413C16.5626 4.073 16.7618 4.31903 16.7329 4.59366L16.3489 8.24784H21.5C21.7761 8.24784 22 8.4717 22 8.74784C22 9.02399 21.7761 9.24784 21.5 9.24784H16.2438L15.6458 14.9368H19.5C19.7761 14.9368 20 15.1606 20 15.4368C20 15.7129 19.7761 15.9368 19.5 15.9368H15.5407L14.956 21.5005C14.9271 21.7752 14.6811 21.9744 14.4064 21.9455C14.1318 21.9167 13.9326 21.6706 13.9614 21.396L14.5352 15.9368H8.59623L8.22061 19.5105C8.19175 19.7852 7.94572 19.9844 7.67109 19.9555ZM14.6403 14.9368L15.2383 9.24784H9.29927L8.70134 14.9368H14.6403Z" fill="#F0EFF4"/>
</svg>
